<?xml version="1.0" encoding="utf-8"?>
<!-- Generator: Adobe Illustrator 16.0.0, SVG Export Plug-In . SVG Version: 6.00 Build 0)  -->
<!DOCTYPE svg PUBLIC "-//W3C//DTD SVG 1.1//EN" "http://www.w3.org/Graphics/SVG/1.1/DTD/svg11.dtd">
<svg version="1.1" id="Layer_1" xmlns="http://www.w3.org/2000/svg" xmlns:xlink="http://www.w3.org/1999/xlink" x="0px" y="0px"
	 width="29.996px" height="400.95px" viewBox="0 0 29.996 400.95" enable-background="new 0 0 29.996 400.95" xml:space="preserve">
<path fill="#53AA51" d="M25.604,6.394C22.771,3.561,19.005,2,14.998,2S7.225,3.561,4.392,6.394c-2.833,2.833-4.394,6.6-4.394,10.605
	c0,4.008,1.56,7.773,4.394,10.607c2.833,2.832,6.6,4.393,10.606,4.393s7.773-1.561,10.606-4.393c2.833-2.834,4.394-6.6,4.394-10.607
	C29.998,12.993,28.438,9.227,25.604,6.394z M28.168,18.388c-3.264-0.867-6.273-1.189-8.965-0.961c-0.332-1.02-0.723-2.051-1.17-3.09
	c2.928-0.865,5.699-2.272,8.286-4.214c1.251,2.052,1.921,4.413,1.921,6.876C28.24,17.468,28.215,17.931,28.168,18.388z
	 M24.361,7.636c0.336,0.335,0.65,0.686,0.944,1.049c-2.499,1.882-5.179,3.23-8.013,4.035c-1.825-3.757-4.022-6.828-5.408-8.596
	c1.007-0.242,2.05-0.367,3.113-0.367C18.535,3.758,21.86,5.135,24.361,7.636z M5.634,7.636c1.293-1.293,2.808-2.285,4.457-2.942
	c1.237,1.528,3.532,4.594,5.45,8.449c-1.339,0.27-2.71,0.423-4.112,0.458c-3.769,0.094-6.914-0.695-8.807-1.331
	C3.278,10.552,4.295,8.976,5.634,7.636z M1.756,16.999c0-1.039,0.12-2.06,0.352-3.047c1.917,0.64,5.004,1.415,8.705,1.415
	c0.218,0,0.438-0.003,0.661-0.008c1.652-0.042,3.265-0.236,4.836-0.579c0.431,0.976,0.804,1.938,1.124,2.885
	c-2.11,0.395-4.018,1.16-5.683,2.289c-3.026,2.051-4.681,4.91-5.538,6.953c-0.197-0.176-0.391-0.355-0.579-0.545
	C3.133,23.862,1.756,20.536,1.756,16.999z M7.657,28.024c0.704-1.832,2.188-4.654,5.08-6.615c1.524-1.033,3.265-1.719,5.212-2.055
	c1.018,3.729,1.154,7.23,0.401,10.461c-1.081,0.281-2.206,0.426-3.353,0.426C12.346,30.241,9.813,29.468,7.657,28.024z
	 M24.361,26.362c-1.195,1.195-2.578,2.133-4.082,2.787c0.414-2.367,0.405-4.875-0.025-7.475c-0.139-0.832-0.32-1.676-0.543-2.527
	c2.439-0.158,5.164,0.168,8.158,0.98C27.305,22.47,26.107,24.616,24.361,26.362z"/>
<path fill="#53AA51" d="M29.884,139.137c0-0.028,0-0.028,0-0.056c-0.252-2.045-0.925-3.949-1.935-5.658c0,0,0-0.028-0.027-0.028
	c-0.197-0.336-0.393-0.645-0.617-0.953c-0.028-0.028-0.057-0.056-0.057-0.084c-0.504-0.7-1.037-1.344-1.654-1.96
	c-2.439-2.437-5.719-4.034-9.393-4.342c-0.056,0-0.111,0-0.14,0c-0.364-0.028-0.729-0.056-1.093-0.056
	c-0.365,0-0.729,0.028-1.094,0.056c-0.057,0-0.084,0-0.141,0c-0.757,0.056-1.514,0.196-2.243,0.364
	c-2.748,0.645-5.215,2.045-7.149,3.978c-0.617,0.616-1.149,1.26-1.654,1.96c-0.028,0.028-0.056,0.056-0.056,0.084
	c-0.168,0.28-0.365,0.616-0.561,0.953c0,0,0,0.028-0.028,0.028c-0.981,1.709-1.654,3.613-1.935,5.658c0,0.028,0,0.028,0,0.056
	c-0.084,0.616-0.112,1.232-0.112,1.877c0,3.25,1.038,6.247,2.776,8.711c0,0,0,0.028,0.028,0.028
	c0.028,0.027,0.028,0.027,0.056,0.056c0.224,0.28,0.42,0.589,0.673,0.841c0.028,0.027,0.056,0.056,0.084,0.084
	c0.252,0.308,0.533,0.588,0.813,0.867c0.252,0.253,0.533,0.505,0.785,0.729c0.028,0.028,0.056,0.057,0.084,0.084
	c0.281,0.252,0.589,0.477,0.897,0.701c0,0,0.028,0,0.028,0.027l0.028,0.028c0.617,0.448,1.262,0.841,1.935,1.177
	c0.028,0.027,0.084,0.027,0.112,0.056c0.337,0.168,0.673,0.336,1.01,0.476c0.028,0,0.056,0.029,0.084,0.029
	c0.364,0.14,0.701,0.279,1.065,0.392c1.43,0.448,2.972,0.7,4.542,0.7s3.112-0.252,4.542-0.7c0.364-0.112,0.729-0.252,1.065-0.392
	c0.028,0,0.057-0.029,0.084-0.029c0.336-0.14,0.673-0.308,1.01-0.476c0.027-0.028,0.084-0.028,0.111-0.056
	c0.674-0.336,1.318-0.757,1.936-1.177c0,0,0.027-0.028,0.056-0.028c0,0,0.028,0,0.028-0.027c0.309-0.225,0.588-0.449,0.869-0.701
	c0.027-0.027,0.056-0.056,0.084-0.084c0.28-0.224,0.533-0.476,0.813-0.729c0.281-0.279,0.533-0.56,0.785-0.84
	c0.028-0.027,0.057-0.056,0.084-0.111c0.225-0.281,0.449-0.561,0.674-0.841c0.027-0.028,0.027-0.028,0.056-0.056
	c0.028-0.028,0.028-0.028,0.028-0.057c1.738-2.465,2.775-5.462,2.775-8.683C29.996,140.37,29.939,139.753,29.884,139.137z
	 M26.211,134.375l0.084-0.308c0.701,1.092,1.206,2.297,1.543,3.613c0.055,0.224,0.111,0.42,0.14,0.616c0,0.028,0,0.028,0,0.056
	c0.028,0.084,0.028,0.168,0.056,0.224l-0.28-0.168l-2.243-1.457L26.211,134.375z M19.538,128.549
	c1.851,0.672,3.505,1.737,4.851,3.082c0.196,0.196,0.364,0.392,0.561,0.588l-0.448,1.681l-0.757,2.801l-3.225,1.513l-2.271-1.653
	l-2.326-1.681v-3.697l2.326-1.681L19.538,128.549z M19.342,139.558l-0.841,2.549l-0.841,2.549h-2.637h-2.691l-0.841-2.549
	l-0.841-2.549l2.158-1.569l2.215-1.568l2.16,1.568L19.342,139.558z M13.09,127.905c0.252-0.028,0.477-0.056,0.729-0.084
	c0.112,0,0.196-0.028,0.309-0.028c0.309-0.028,0.589-0.028,0.896-0.028c0.309,0,0.617,0.028,0.898,0.028
	c0.111,0,0.195,0,0.308,0.028c0.253,0.028,0.478,0.056,0.729,0.084c0.111,0.028,0.225,0.028,0.364,0.056l-0.112,0.084l-2.188,1.568
	l-2.158-1.568l-0.112-0.084C12.865,127.933,12.978,127.905,13.09,127.905z M5.66,131.63c1.346-1.345,3-2.409,4.851-3.082l1.29,0.953
	l2.327,1.681v3.697L11.8,136.56l-2.271,1.653L6.305,136.7l-0.757-2.801l-0.448-1.681C5.267,132.022,5.463,131.826,5.66,131.63z
	 M2.071,138.325c0-0.028,0-0.028,0-0.056c0.028-0.196,0.084-0.392,0.14-0.588v-0.028c0.336-1.289,0.869-2.521,1.542-3.614
	l0.084,0.308l0.701,2.577l-2.243,1.457l-0.28,0.168C2.043,138.465,2.043,138.381,2.071,138.325z M8.323,152.387
	c-0.028-0.028-0.056-0.028-0.112-0.057c-0.308-0.195-0.589-0.392-0.897-0.588c-0.056-0.027-0.084-0.056-0.14-0.084
	c-0.281-0.195-0.561-0.42-0.813-0.645c-0.056-0.027-0.084-0.084-0.14-0.111c-0.252-0.225-0.504-0.477-0.757-0.729
	c-0.028-0.028-0.028-0.028-0.056-0.057h0.28h2.692l0.841,2.549l0.084,0.253C8.968,152.75,8.632,152.582,8.323,152.387z
	 M8.604,148.324H5.716h-1.71c-1.402-2.1-2.215-4.621-2.215-7.31c0-0.084,0-0.112,0-0.168l1.458-0.952l2.383-1.541l3.28,1.541
	l0.897,2.802l0.897,2.744L8.604,148.324z M19.117,152.106l-0.532,1.624c-1.149,0.309-2.327,0.505-3.562,0.505
	c-1.232-0.028-2.438-0.196-3.561-0.505l-0.532-1.624l-0.897-2.745l2.103-2.885h2.887h2.889l2.103,2.885L19.117,152.106z
	 M24.557,150.146c-0.252,0.253-0.504,0.505-0.757,0.729c-0.056,0.028-0.084,0.084-0.14,0.112c-0.253,0.224-0.533,0.447-0.813,0.645
	c-0.056,0.027-0.084,0.056-0.14,0.084c-0.281,0.195-0.59,0.392-0.898,0.588c-0.027,0.027-0.084,0.027-0.111,0.056
	c-0.309,0.196-0.645,0.364-0.981,0.532l0.084-0.28l0.841-2.549h2.691h0.281C24.613,150.117,24.585,150.146,24.557,150.146z
	 M28.258,140.958c0,2.745-0.813,5.238-2.215,7.339h-1.711h-2.887l-2.104-2.885l0.897-2.746l0.897-2.801l3.279-1.541l2.384,1.541
	l1.458,0.953C28.258,140.874,28.258,140.902,28.258,140.958z"/>
<g>
	<path fill="#53AA51" stroke="#53AA51" stroke-width="0.25" stroke-miterlimit="10" d="M29.224,190.021
		c-0.225-1.044-1.082-1.891-2.131-2.104c-3.056-0.615-6.136-0.547-9.085,0.08c-0.047,0.012-0.093,0.014-0.137,0.032
		c-4.116,0.903-7.959,2.925-11.037,6.005c-3.078,3.076-5.104,6.92-6.007,11.032c-0.019,0.044-0.022,0.092-0.033,0.138
		c-0.627,2.948-0.695,6.027-0.081,9.078c0.211,1.05,1.058,1.905,2.106,2.129c1.559,0.332,3.124,0.495,4.677,0.495
		c5.831,0,11.468-2.293,15.698-6.519c3.078-3.078,5.093-6.912,5.981-11.013c0.06-0.127,0.092-0.259,0.092-0.397
		C29.844,196.064,29.865,193.03,29.224,190.021z M3.202,214.611c-0.335-0.071-0.616-0.355-0.685-0.691
		c-0.443-2.197-0.481-4.407-0.217-6.565l7.545,7.542C7.66,215.15,5.422,215.087,3.202,214.611z M21.894,209.087
		c-2.755,2.753-6.174,4.577-9.833,5.424l-9.365-9.361c0.863-3.657,2.692-7.069,5.439-9.815c2.747-2.744,6.152-4.586,9.805-5.45
		l9.376,9.373C26.47,202.917,24.648,206.331,21.894,209.087z M27.702,197.043l-7.561-7.557c0.831-0.104,1.668-0.172,2.511-0.172
		c1.354,0,2.718,0.134,4.073,0.406c0.34,0.068,0.625,0.35,0.696,0.686C27.895,192.625,27.957,194.86,27.702,197.043z"/>
	<path fill="#53AA51" d="M20.247,200.629l-1.191-1.19l1.189-1.188c0.358-0.358,0.358-0.942,0-1.3c-0.359-0.358-0.942-0.358-1.3,0
		l-1.189,1.188l-1.188-1.189c-0.359-0.358-0.942-0.358-1.302,0c-0.357,0.358-0.357,0.942,0,1.3l1.189,1.189l-1.459,1.459
		l-1.188-1.19c-0.359-0.359-0.942-0.359-1.301,0c-0.358,0.359-0.358,0.941,0,1.301l1.189,1.189l-1.459,1.458l-1.189-1.189
		c-0.358-0.358-0.942-0.358-1.301,0s-0.359,0.941,0,1.301l1.189,1.188l-1.189,1.188c-0.361,0.361-0.361,0.941-0.001,1.303
		c0.18,0.178,0.416,0.269,0.651,0.269c0.236,0,0.471-0.091,0.651-0.269l1.189-1.19l1.188,1.188c0.181,0.18,0.417,0.271,0.651,0.271
		c0.235,0,0.471-0.091,0.652-0.269c0.358-0.359,0.358-0.941,0-1.301l-1.191-1.19l1.459-1.457l1.188,1.188
		c0.181,0.18,0.416,0.27,0.651,0.27s0.471-0.09,0.651-0.268c0.358-0.358,0.358-0.942,0-1.301l-1.191-1.189l1.46-1.459l1.189,1.188
		c0.18,0.181,0.415,0.271,0.65,0.271c0.236,0,0.472-0.09,0.651-0.269C20.605,201.57,20.605,200.988,20.247,200.629z"/>
	<path fill="#53AA51" d="M13.2,200.314L13.2,200.314L13.2,200.314z M11.047,202.467l1.189,1.189l1.459-1.458l-1.189-1.189
		c-0.358-0.359-0.358-0.941,0-1.301c0.359-0.359,0.942-0.359,1.301,0l1.188,1.19l1.459-1.458l-1.189-1.19
		c-0.357-0.358-0.357-0.942,0-1.3c0.359-0.358,0.942-0.358,1.302,0l1.188,1.189l1.189-1.188c0.357-0.358,0.94-0.358,1.3,0
		c0.358,0.358,0.358,0.942,0,1.3l-1.189,1.188l1.191,1.19c0.358,0.359,0.358,0.941,0,1.3c-0.18,0.179-0.415,0.269-0.651,0.269
		c-0.235,0-0.471-0.09-0.65-0.271l-1.189-1.188l-1.46,1.458l1.191,1.19c0.358,0.358,0.358,0.942,0,1.301
		c-0.181,0.178-0.416,0.268-0.651,0.268s-0.471-0.09-0.651-0.27l-1.188-1.188l-1.459,1.457l1.191,1.19
		c0.358,0.359,0.358,0.941,0,1.301c-0.181,0.178-0.417,0.269-0.652,0.269c-0.235,0-0.47-0.091-0.651-0.271l-1.188-1.188l-1.189,1.19
		c-0.18,0.178-0.416,0.269-0.651,0.269c-0.235,0-0.471-0.091-0.651-0.269c-0.359-0.361-0.359-0.941,0.001-1.303l1.189-1.188
		l-1.189-1.188c-0.359-0.359-0.359-0.942,0-1.301S10.689,202.108,11.047,202.467z M10.44,203.074L10.44,203.074L10.44,203.074z
		 M15.959,197.557L15.959,197.557L15.959,197.557z M19.552,197.558C19.551,197.558,19.552,197.558,19.552,197.558L19.552,197.558z"
		/>
</g>
<g>
	<path fill="#53AA51" stroke="#53AA51" stroke-width="0.25" stroke-miterlimit="10" d="M29.37,252.419
		c-0.227-1.056-1.093-1.91-2.152-2.125c-3.086-0.621-6.197-0.553-9.176,0.081c-0.047,0.012-0.093,0.014-0.138,0.032
		c-4.158,0.911-8.039,2.954-11.147,6.064c-3.109,3.106-5.155,6.989-6.067,11.143c-0.019,0.044-0.022,0.093-0.033,0.14
		c-0.634,2.978-0.703,6.087-0.082,9.168c0.214,1.061,1.068,1.925,2.128,2.15c1.574,0.335,3.155,0.501,4.723,0.501
		c5.889,0,11.583-2.316,15.856-6.585c3.108-3.108,5.143-6.98,6.04-11.123c0.061-0.128,0.093-0.262,0.093-0.401
		C29.997,258.522,30.018,255.457,29.37,252.419z M3.088,277.255c-0.338-0.073-0.623-0.359-0.691-0.698
		c-0.448-2.22-0.487-4.452-0.219-6.632l7.621,7.618C7.591,277.799,5.331,277.735,3.088,277.255z M21.967,271.675
		c-2.783,2.781-6.235,4.623-9.931,5.479l-9.458-9.455c0.872-3.694,2.719-7.141,5.494-9.913c2.774-2.771,6.214-4.633,9.902-5.505
		l9.471,9.466C26.589,265.443,24.749,268.892,21.967,271.675z M27.833,259.511l-7.636-7.633c0.84-0.104,1.686-0.174,2.536-0.174
		c1.366,0,2.745,0.135,4.114,0.41c0.343,0.068,0.631,0.353,0.703,0.692C28.027,255.048,28.092,257.306,27.833,259.511z"/>
	<path fill="#53AA51" d="M20.298,263.134l-1.203-1.202l1.201-1.199c0.362-0.362,0.362-0.952,0-1.313
		c-0.362-0.362-0.951-0.362-1.313,0l-1.201,1.199l-1.2-1.201c-0.362-0.362-0.951-0.362-1.314,0c-0.361,0.361-0.361,0.951,0,1.313
		l1.202,1.201l-1.475,1.474l-1.2-1.202c-0.362-0.362-0.952-0.362-1.314,0c-0.362,0.362-0.362,0.951,0,1.313l1.201,1.202
		l-1.474,1.472l-1.201-1.201c-0.362-0.361-0.951-0.361-1.314,0c-0.362,0.362-0.362,0.951,0,1.313l1.201,1.201l-1.201,1.2
		c-0.364,0.364-0.364,0.951-0.001,1.315c0.182,0.18,0.42,0.271,0.658,0.271s0.476-0.092,0.658-0.271l1.201-1.202l1.2,1.2
		c0.183,0.182,0.421,0.273,0.658,0.273c0.238,0,0.476-0.092,0.659-0.271c0.361-0.362,0.361-0.951,0-1.313l-1.203-1.202l1.474-1.472
		l1.2,1.199c0.183,0.182,0.421,0.272,0.659,0.272c0.236,0,0.475-0.091,0.657-0.271c0.361-0.362,0.361-0.952,0-1.313l-1.203-1.201
		l1.474-1.474l1.201,1.2c0.183,0.183,0.42,0.273,0.658,0.273c0.237,0,0.476-0.091,0.657-0.271
		C20.66,264.084,20.66,263.496,20.298,263.134z"/>
	<path fill="#53AA51" d="M13.18,262.815L13.18,262.815L13.18,262.815z M11.006,264.989l1.201,1.201l1.474-1.472l-1.201-1.202
		c-0.362-0.362-0.362-0.951,0-1.313c0.362-0.362,0.952-0.362,1.314,0l1.2,1.202l1.475-1.473l-1.202-1.202
		c-0.361-0.362-0.361-0.952,0-1.313c0.363-0.362,0.952-0.362,1.314,0l1.2,1.201l1.201-1.199c0.362-0.362,0.951-0.362,1.313,0
		c0.362,0.361,0.362,0.951,0,1.313l-1.201,1.199l1.203,1.202c0.362,0.362,0.362,0.95,0,1.313c-0.182,0.181-0.42,0.271-0.657,0.271
		c-0.238,0-0.476-0.091-0.658-0.273l-1.201-1.2l-1.474,1.473l1.203,1.202c0.361,0.361,0.361,0.951,0,1.313
		c-0.183,0.18-0.421,0.271-0.657,0.271c-0.238,0-0.477-0.091-0.659-0.272l-1.2-1.199l-1.474,1.472l1.203,1.202
		c0.361,0.362,0.361,0.951,0,1.313c-0.183,0.18-0.421,0.271-0.659,0.271c-0.237,0-0.475-0.092-0.658-0.273l-1.2-1.2l-1.201,1.202
		c-0.182,0.18-0.42,0.271-0.658,0.271s-0.476-0.092-0.658-0.271c-0.363-0.364-0.363-0.951,0.001-1.315l1.201-1.2l-1.201-1.201
		c-0.362-0.362-0.362-0.951,0-1.313C10.055,264.628,10.644,264.628,11.006,264.989z M10.393,265.603L10.393,265.603L10.393,265.603z
		 M15.967,260.03L15.967,260.03L15.967,260.03z M19.596,260.032C19.595,260.032,19.596,260.032,19.596,260.032L19.596,260.032z"/>
</g>
<path fill="#53AA51" d="M29.957,325.797c0-0.004,0.004-0.008,0.004-0.012c0.002-0.018-0.008-0.032-0.006-0.049
	c-0.446-7.573-6.525-13.639-14.104-14.068c-0.002,0-0.006-0.002-0.008-0.002h-0.002c-0.281-0.015-0.559-0.041-0.844-0.041
	c-8.271,0-15,6.729-15,15c0,0.279,0.026,0.553,0.041,0.828c0,0.004-0.001,0.008-0.001,0.012c-0.002,0.018,0.005,0.032,0.005,0.049
	c0.446,7.543,6.478,13.592,14.014,14.064c0.013,0,0.024,0.008,0.038,0.008c0.021,0,0.04,0,0.058-0.002h0.002
	c0.281,0.015,0.559,0.041,0.844,0.041c8.271,0,15-6.729,15-15C29.998,326.346,29.972,326.072,29.957,325.797z M14.998,313.5
	c0,1.478-0.257,2.895-0.712,4.221l-0.743-0.371c-0.461-0.229-1.025-0.043-1.258,0.418c-0.231,0.463-0.045,1.027,0.418,1.258
	l0.836,0.418c-0.488,0.945-1.075,1.832-1.769,2.629l-0.797-0.799c-0.365-0.365-0.96-0.365-1.326,0c-0.365,0.366-0.365,0.961,0,1.326
	l0.786,0.785c-0.798,0.692-1.674,1.294-2.619,1.779l-0.417-0.834c-0.232-0.463-0.793-0.648-1.258-0.418
	c-0.463,0.23-0.649,0.795-0.418,1.258l0.365,0.729c-1.327,0.458-2.745,0.699-4.213,0.699C1.89,319.373,7.77,313.5,14.998,313.5z
	 M14.488,333.536l-0.896-0.516c-0.44-0.257-1.018-0.104-1.281,0.343c-0.26,0.449-0.106,1.022,0.343,1.283l1.142,0.66
	c-0.424,1.359-0.651,2.803-0.666,4.297c-5.741-0.822-10.284-5.368-11.109-11.109c1.725-0.017,3.375-0.336,4.917-0.891l0.66,1.318
	c0.165,0.326,0.495,0.516,0.838,0.516c0.141,0,0.283-0.031,0.42-0.1c0.463-0.23,0.649-0.795,0.418-1.258l-0.611-1.223
	c1.13-0.577,2.175-1.292,3.118-2.125l0.68,0.682c0.182,0.182,0.422,0.273,0.662,0.273s0.48-0.092,0.664-0.273
	c0.366-0.366,0.366-0.961,0-1.326l-0.681-0.681c0.833-0.942,1.549-1.987,2.125-3.118l1.223,0.611c0.137,0.068,0.279,0.1,0.42,0.1
	c0.344,0,0.674-0.189,0.838-0.518c0.23-0.463,0.045-1.027-0.418-1.258l-1.318-0.66c0.555-1.539,0.874-3.191,0.891-4.916
	c5.742,0.824,10.285,5.367,11.109,11.109c-1.428,0.015-2.809,0.23-4.115,0.619l-0.523-1.047c-0.232-0.465-0.793-0.648-1.258-0.42
	c-0.463,0.232-0.65,0.795-0.42,1.258l0.43,0.859c-1.422,0.628-2.723,1.473-3.873,2.49l-0.678-0.682
	c-0.365-0.365-0.961-0.365-1.326,0c-0.365,0.366-0.365,0.961,0,1.326l0.682,0.681C15.918,330.943,15.107,332.185,14.488,333.536z
	 M14.998,339.75c0-1.202,0.182-2.36,0.489-3.469l0.917,0.531c0.146,0.086,0.31,0.125,0.469,0.125c0.322,0,0.638-0.167,0.813-0.469
	c0.26-0.448,0.106-1.021-0.344-1.282l-1.225-0.709c0.537-1.208,1.251-2.317,2.107-3.302l0.799,0.799
	c0.182,0.184,0.422,0.275,0.662,0.275s0.48-0.092,0.664-0.273c0.365-0.366,0.365-0.961,0-1.326l-0.788-0.787
	c1.007-0.874,2.146-1.596,3.379-2.134l0.597,1.19c0.162,0.328,0.492,0.518,0.836,0.518c0.141,0,0.283-0.031,0.42-0.1
	c0.463-0.232,0.65-0.795,0.42-1.258l-0.494-0.988c1.089-0.297,2.23-0.444,3.404-0.442C28.107,333.875,22.227,339.75,14.998,339.75z"
	/>
<path fill="#53AA51" d="M15.947,390.465 M21.377,381.479l1.656,1.656l-5.773,5.773c0.209,0.781,0.008,1.65-0.605,2.263
	c-0.457,0.457-1.057,0.686-1.657,0.686s-1.2-0.229-1.657-0.686c-0.914-0.914-0.914-2.4,0-3.314c0.612-0.612,1.481-0.813,2.263-0.605
	L21.377,381.479z M25.604,378.908c-2.832-2.833-6.6-4.394-10.606-4.394c-4.007,0-7.773,1.561-10.606,4.394
	c-2.833,2.833-4.394,6.6-4.394,10.606s1.56,7.773,4.394,10.606l0.829,0.829l4.972-4.973l-0.829-0.828
	c-1.505-1.505-2.334-3.506-2.334-5.635s0.829-4.129,2.334-5.635s3.506-2.334,5.635-2.334c0.889,0,1.756,0.145,2.575,0.424l1.799-1.8
	c-0.328-0.153-0.664-0.29-1.006-0.408c-1.07-0.368-2.203-0.56-3.368-0.56c-2.754,0-5.344,1.072-7.292,3.021
	c-3.741,3.741-4.002,9.664-0.782,13.708l-1.666,1.666c-0.216-0.26-0.421-0.527-0.613-0.801c-3.476-4.936-3.007-11.819,1.404-16.23
	c4.935-4.935,12.963-4.935,17.899,0c4.412,4.411,4.879,11.295,1.404,16.23c-0.193,0.273-0.396,0.541-0.613,0.801l-1.666-1.666
	c2.234-2.807,2.793-6.519,1.674-9.778c-0.117-0.341-0.254-0.678-0.406-1.007l-1.797,1.795c0.279,0.818,0.424,1.686,0.424,2.574
	c0,2.129-0.83,4.13-2.334,5.635l-0.828,0.828l4.971,4.973l0.828-0.829c2.834-2.833,4.395-6.6,4.395-10.606
	S28.438,381.741,25.604,378.908z M24.775,399.536l0.121-0.122c2.646-2.646,4.102-6.158,4.102-9.899s-1.455-7.254-4.102-9.899
	c-2.645-2.646-6.158-4.101-9.899-4.101c-3.741,0-7.254,1.455-9.899,4.101c-2.646,2.646-4.101,6.158-4.101,9.899
	s1.455,7.254,4.101,9.899l0.122,0.122l3.558-3.559l-0.122-0.121c-1.693-1.692-2.627-3.948-2.627-6.342s0.934-4.649,2.627-6.342
	c1.692-1.693,3.948-2.627,6.342-2.627c0.782,0,1.549,0.1,2.29,0.294l0.279-0.28c-0.822-0.235-1.686-0.357-2.569-0.357
	c-2.489,0-4.825,0.967-6.585,2.728c-3.377,3.377-3.614,8.728-0.707,12.379l0.556,0.698l-3.073,3.072l-0.701-0.843
	c-4.456-5.36-4.172-13.354,0.853-18.378c5.325-5.325,13.987-5.325,19.313,0c5.023,5.024,5.309,13.018,0.852,18.378l-0.699,0.843
	l-3.074-3.072l0.557-0.698c1.908-2.398,2.463-5.532,1.66-8.358l-0.277,0.275c0.195,0.739,0.295,1.508,0.295,2.289
	c0,2.394-0.936,4.649-2.627,6.342l-0.121,0.121L24.775,399.536z"/>
<g>
	<circle fill="none" stroke="#53AA51" stroke-width="1.75" stroke-miterlimit="10" cx="14.999" cy="79.403" r="9.167"/>
	<circle fill="none" stroke="#53AA51" stroke-width="1.75" stroke-miterlimit="10" cx="14.998" cy="79.404" r="13.656"/>
</g>
</svg>
